<?xml version="1.0" encoding="utf-8"?>
<svg version="1.1" id="Layer_1" xmlns="http://www.w3.org/2000/svg" xmlns:xlink="http://www.w3.org/1999/xlink" x="0px" y="0px" viewBox="0 0 100 100" style="enable-background:new 0 0 100 100;" xml:space="preserve">
<style type="text/css">
	.st0{fill:#FFFFFF;}
</style>
<path class="st0" d="M50,4.2C24.7,4.2,4.2,24.7,4.2,50S24.7,95.8,50,95.8S95.8,75.3,95.8,50S75.3,4.2,50,4.2z M50,88.2
	c-21.1,0-38.2-17.1-38.2-38.2S28.9,11.8,50,11.8S88.2,28.9,88.2,50S71.1,88.2,50,88.2z"/>
<path class="st0" d="M69.7,53.8H30.3c-2.1,0-3.8-1.7-3.8-3.8v0c0-2.1,1.7-3.8,3.8-3.8h39.4c2.1,0,3.8,1.7,3.8,3.8v0
	C73.5,52.1,71.8,53.8,69.7,53.8z"/>
</svg>
