<?xml version="1.0" encoding="utf-8"?>
<!-- Generator: Adobe Illustrator 19.0.0, SVG Export Plug-In . SVG Version: 6.00 Build 0)  -->
<svg version="1.1" id="Layer_1" xmlns="http://www.w3.org/2000/svg" xmlns:xlink="http://www.w3.org/1999/xlink" x="0px" y="0px"
	 viewBox="0 0 100 100" style="enable-background:new 0 0 100 100;" xml:space="preserve">
<style type="text/css">
	.st0{fill:#FFFFFF;}
</style>
<g>
	<path class="st0" d="M50,4.2C24.7,4.2,4.2,24.7,4.2,50S24.7,95.8,50,95.8S95.8,75.3,95.8,50S75.3,4.2,50,4.2z M50,88.2
		c-21.1,0-38.2-17.1-38.2-38.2S28.9,11.8,50,11.8S88.2,28.9,88.2,50S71.1,88.2,50,88.2z"/>
	<path class="st0" d="M50,27.8c-12.2,0-22.2,10-22.2,22.2c0,12.2,10,22.2,22.2,22.2c12.2,0,22.2-10,22.2-22.2
		C72.2,37.8,62.2,27.8,50,27.8z M50,64.6c-8.1,0-14.6-6.5-14.6-14.6c0-8.1,6.5-14.6,14.6-14.6c8.1,0,14.6,6.5,14.6,14.6
		C64.6,58.1,58.1,64.6,50,64.6z"/>
	<path class="st0" d="M96.3,46.2H81.7c-2.1,0-3.7,1.7-3.7,3.8c0,0,0,0,0,0s0,0,0,0c0,2.1,1.6,3.8,3.7,3.8h14.7c2,0,3.7-1.6,3.7-3.7
		l0-0.3C100,47.8,98.4,46.2,96.3,46.2z"/>
	<path class="st0" d="M18.3,46.2H3.7c-2,0-3.7,1.6-3.7,3.7v0.3c0,2,1.6,3.7,3.7,3.7h14.7c2.1,0,3.7-1.7,3.7-3.8c0,0,0,0,0,0s0,0,0,0
		C22,47.9,20.4,46.2,18.3,46.2z"/>
	<path class="st0" d="M46.2,81.7v14.7c0,2,1.6,3.7,3.7,3.7l0.3,0c2,0,3.7-1.6,3.7-3.7V81.7c0-2.1-1.7-3.7-3.8-3.7c0,0,0,0,0,0
		s0,0,0,0C47.9,78,46.2,79.6,46.2,81.7z"/>
	<path class="st0" d="M53.8,18.3V3.7c0-2-1.6-3.7-3.7-3.7h-0.3c-2,0-3.7,1.6-3.7,3.7v14.7c0,2.1,1.7,3.7,3.8,3.7c0,0,0,0,0,0
		s0,0,0,0C52.1,22,53.8,20.4,53.8,18.3z"/>
</g>
</svg>
