<?xml version="1.0" encoding="utf-8"?>
<!-- Generator: Adobe Illustrator 19.0.0, SVG Export Plug-In . SVG Version: 6.00 Build 0)  -->
<svg version="1.1" id="Layer_1" xmlns="http://www.w3.org/2000/svg" xmlns:xlink="http://www.w3.org/1999/xlink" x="0px" y="0px"
	 viewBox="0 0 100 100" style="enable-background:new 0 0 100 100;" xml:space="preserve">
<style type="text/css">
	.st0{fill:none;}
	.st1{fill:#FFFFFF;}
</style>
<polygon class="st0" points="23.5,59.3 76.5,59.3 50,32.8 "/>
<path class="st1" d="M50,4.2C24.7,4.2,4.2,24.7,4.2,50S24.7,95.8,50,95.8S95.8,75.3,95.8,50S75.3,4.2,50,4.2z M50,88.2
	c-15,0-28-8.7-34.3-21.3h68.6C78,79.5,65,88.2,50,88.2z M23.5,59.3L50,32.8l26.5,26.5H23.5z M50,22.1L12.9,59.2
	c-0.7-2.9-1.1-6-1.1-9.2c0-21.1,17.1-38.2,38.2-38.2c21.1,0,38.2,17.1,38.2,38.2c0,3.2-0.4,6.2-1.1,9.2L50,22.1z"/>
</svg>
