<?xml version="1.0" encoding="utf-8"?>
<!-- Generator: Adobe Illustrator 19.0.0, SVG Export Plug-In . SVG Version: 6.00 Build 0)  -->
<svg version="1.1" id="Layer_1" xmlns="http://www.w3.org/2000/svg" xmlns:xlink="http://www.w3.org/1999/xlink" x="0px" y="0px"
	 viewBox="206 -206 512 512" style="enable-background:new 206 -206 512 512;" xml:space="preserve">
<style type="text/css">
	.st0{fill:#FFFFFF;}
</style>
<path id="magnifier-icon" class="st0" d="M666.5,202.4L557.4,93.4c15.9-25.1,25.2-54.9,25.2-86.8c0-89.6-72.9-162.5-162.5-162.5
	c-89.6,0-162.5,72.9-162.5,162.5s72.9,162.5,162.5,162.5c30.3,0,58.7-8.4,83.1-22.9L612.9,256L666.5,202.4z M318.1,6.5
	c0-56.2,45.7-101.9,101.9-101.9S522-49.7,522,6.5s-45.7,101.9-101.9,101.9C363.8,108.5,318.1,62.8,318.1,6.5z"/>
</svg>
