<?xml version="1.0" encoding="utf-8"?>
<svg version="1.1" id="Layer_1" xmlns="http://www.w3.org/2000/svg" xmlns:xlink="http://www.w3.org/1999/xlink" x="0px" y="0px" viewBox="0 0 100 100" style="enable-background:new 0 0 100 100;" xml:space="preserve">
<style type="text/css">
	.st0{fill:none;}
	.st1{fill:#FFFFFF;}
</style>
<polygon class="st0" points="76.5,40.7 23.5,40.7 50,67.2 "/>
<path class="st1" d="M50,4.2C24.7,4.2,4.2,24.7,4.2,50S24.7,95.8,50,95.8S95.8,75.3,95.8,50S75.3,4.2,50,4.2z M50,11.8
	c15,0,28,8.7,34.3,21.3H15.7C22,20.5,35,11.8,50,11.8z M76.5,40.7L50,67.2L23.5,40.7H76.5z M50,88.2c-21.1,0-38.2-17.1-38.2-38.2
	c0-3.2,0.4-6.2,1.1-9.2L50,77.9l37.1-37.1c0.7,2.9,1.1,6,1.1,9.2C88.2,71.1,71.1,88.2,50,88.2z"/>
</svg>
